<?xml version="1.0" encoding="UTF-8"?>
<!DOCTYPE svg PUBLIC "-//W3C//DTD SVG 1.1//EN" "http://www.w3.org/Graphics/SVG/1.1/DTD/svg11.dtd">
<!-- Creator: CorelDRAW 2019 (64-Bit) -->
<svg xmlns="http://www.w3.org/2000/svg" xml:space="preserve" width="848px" height="720px" version="1.1" style="shape-rendering:geometricPrecision; text-rendering:geometricPrecision; image-rendering:optimizeQuality; fill-rule:evenodd; clip-rule:evenodd"
viewBox="0 0 848 719.85"
 xmlns:xlink="http://www.w3.org/1999/xlink"
 xmlns:xodm="http://www.corel.com/coreldraw/odm/2003">
 <defs>
  <style type="text/css">
   <![CDATA[
    .fil0 {fill:#1F4396}
   ]]>
  </style>
 </defs>
 <g id="Layer_x0020_1">
  <metadata id="CorelCorpID_0Corel-Layer"/>
  <path class="fil0" d="M168.29 73.4c0,-40.54 32.86,-73.4 73.4,-73.4l365.07 0c40.54,0 73.39,32.86 73.39,73.4l0 365.08c0,40.53 -32.85,73.39 -73.39,73.39l-365.07 0c-40.54,0 -73.4,-32.86 -73.4,-73.39l0 -365.08zm89.3 388.32c-21.62,0 -39.14,-17.53 -39.14,-39.15l0 -333.15c0,-21.62 17.52,-39.14 39.14,-39.14l44.65 0c58.83,0 102.4,59.61 64.77,97.3l-109.17 109.32 93.69 98.15c45.43,47.59 -7.77,106.67 -58.17,106.67l-35.77 0zm141.68 -411.44l37.73 0c58.83,0 102.41,59.61 64.77,97.3l-109.17 109.32 200.7 204.74 -211.8 -0.04c45.51,0 74.24,-76.56 25.53,-127.27l-74.37 -77.43 86.58 -89.25c46.62,-48.07 12.79,-109.9 -19.97,-117.37zm230.68 372.29l-162.52 -165.67 86.58 -89.25c46.62,-48.07 12.78,-109.9 -19.98,-117.37l56.71 0c21.62,0 39.14,17.52 39.14,39.14l0.07 333.15zm-596.82 244.02l0 29.83 13.32 0c6.91,0 12.15,-1.29 15.72,-3.88 3.58,-2.59 5.36,-6.36 5.36,-11.3 0,-4.88 -1.63,-8.55 -4.91,-10.99 -3.27,-2.44 -8.16,-3.66 -14.65,-3.66l-14.84 0zm0 -50.88l0 28.37 10.28 0c7.16,0 12.51,-1.21 16.06,-3.63 3.54,-2.41 5.32,-6.1 5.32,-11.05 0,-4.47 -1.67,-7.87 -5.01,-10.2 -3.34,-2.33 -8.26,-3.49 -14.76,-3.49l-11.89 0zm-33.13 -22.88l52 0c15.37,0 26.92,2.76 34.67,8.28 7.74,5.51 11.61,13.72 11.61,24.63 0,7.33 -2.02,13.43 -6.08,18.29 -4.05,4.85 -9.95,8.35 -17.69,10.5 8.69,1.61 15.38,5.02 20.05,10.24 4.68,5.2 7.02,11.86 7.02,19.96 0,11.92 -4.26,20.75 -12.78,26.5 -8.52,5.75 -21.65,8.62 -39.4,8.62l-49.4 0 0 -127.02zm174.1 28.33l-16.44 47.63 32.35 0 -15.91 -47.63zm-19.75 -28.33l40.85 0 48.08 127.02 -36.19 0 -9.03 -26.9 -48.89 0 -9.47 26.9 -33.5 0 48.15 -127.02zm96.26 0l42.26 0 36.79 76.16c1.25,2.56 2.71,6.12 4.37,10.68 1.67,4.56 3.52,10.15 5.54,16.76 -1.07,-6.26 -1.86,-12.01 -2.37,-17.25 -0.5,-5.24 -0.76,-10.04 -0.76,-14.39l0 -71.96 30.57 0 0 127.02 -42.09 0 -38.21 -78.93c-1.79,-3.63 -3.43,-7.58 -4.91,-11.84 -1.49,-4.26 -2.86,-8.89 -4.11,-13.9 1.19,7.57 2.06,14.52 2.63,20.87 0.57,6.34 0.85,11.93 0.85,16.76l0 67.04 -30.56 0 0 -127.02zm140.44 0l33.86 0 0 54.89 39.33 -54.89 37.9 0 -46.66 58.37 51.42 68.65 -42.07 0 -39.92 -58.9 0 58.9 -33.86 0 0 -127.02zm214.39 73.76l0 29.83 13.32 0c6.91,0 12.15,-1.29 15.72,-3.88 3.58,-2.59 5.36,-6.36 5.36,-11.3 0,-4.88 -1.63,-8.55 -4.91,-10.99 -3.28,-2.44 -8.16,-3.66 -14.65,-3.66l-14.84 0zm0 -50.88l0 28.37 10.28 0c7.16,0 12.51,-1.21 16.05,-3.63 3.55,-2.41 5.33,-6.1 5.33,-11.05 0,-4.47 -1.67,-7.87 -5.01,-10.2 -3.34,-2.33 -8.26,-3.49 -14.76,-3.49l-11.89 0zm-33.13 -22.88l52 0c15.36,0 26.92,2.76 34.66,8.28 7.75,5.51 11.62,13.72 11.62,24.63 0,7.33 -2.03,13.43 -6.08,18.29 -4.05,4.85 -9.95,8.35 -17.7,10.5 8.7,1.61 15.38,5.02 20.06,10.24 4.68,5.2 7.01,11.86 7.01,19.96 0,11.92 -4.25,20.75 -12.77,26.5 -8.52,5.75 -21.65,8.62 -39.4,8.62l-49.4 0 0 -127.02zm154.7 22.33l0 32.58 11.88 0c7.33,0 12.82,-1.33 16.48,-3.98 3.67,-2.66 5.5,-6.64 5.5,-11.95 0,-5.73 -2.04,-9.93 -6.12,-12.62 -4.08,-2.69 -10.53,-4.03 -19.34,-4.03l-8.4 0zm-33.13 -22.33l50.46 0c16.82,0 29.3,2.73 37.44,8.18 8.14,5.46 12.21,13.76 12.21,24.9 0,8.23 -2.14,15 -6.44,20.3 -4.3,5.31 -10.51,8.85 -18.62,10.64 6.68,2.44 12.05,9.38 16.11,20.82l15.17 42.18 -35.31 0 -11.18 -34.76c-1.79,-5.6 -4.23,-9.48 -7.33,-11.62 -3.09,-2.15 -7.92,-3.22 -14.47,-3.22l-4.91 0 0 49.6 -33.13 0 0 -127.02zm120.26 0l33.86 0 0 127.02 -33.86 0 0 -127.02z"/>
 </g>
</svg>
