<?xml version="1.0" encoding="utf-8" standalone="yes"?>
<!DOCTYPE svg PUBLIC "-//W3C//DTD SVG 1.1//EN" "http://www.w3.org/Graphics/SVG/1.1/DTD/svg11.dtd">
<svg xmlns:xlink="http://www.w3.org/1999/xlink" viewBox="0 0 238 238" class="barcode-canvas" version="1.1" style="shape-rendering:crispEdges;" xmlns="http://www.w3.org/2000/svg">
  <g text-rendering="geometricPrecision">
    <rect x="0" y="0" width="238" height="238" fill="#ffffff" />
    <rect x="7" y="7" width="35" height="5" fill="#000000" />
    <rect x="47" y="7" width="15" height="5" fill="#000000" />
    <rect x="67" y="7" width="25" height="5" fill="#000000" />
    <rect x="127" y="7" width="15" height="5" fill="#000000" />
    <rect x="157" y="7" width="20" height="5" fill="#000000" />
    <rect x="187" y="7" width="5" height="5" fill="#000000" />
    <rect x="197" y="7" width="35" height="5" fill="#000000" />
    <rect x="7" y="12" width="5" height="5" fill="#000000" />
    <rect x="37" y="12" width="5" height="5" fill="#000000" />
    <rect x="47" y="12" width="5" height="5" fill="#000000" />
    <rect x="57" y="12" width="5" height="5" fill="#000000" />
    <rect x="72" y="12" width="5" height="5" fill="#000000" />
    <rect x="92" y="12" width="10" height="5" fill="#000000" />
    <rect x="117" y="12" width="5" height="5" fill="#000000" />
    <rect x="132" y="12" width="15" height="5" fill="#000000" />
    <rect x="162" y="12" width="10" height="5" fill="#000000" />
    <rect x="182" y="12" width="5" height="5" fill="#000000" />
    <rect x="197" y="12" width="5" height="5" fill="#000000" />
    <rect x="227" y="12" width="5" height="5" fill="#000000" />
    <rect x="7" y="17" width="5" height="5" fill="#000000" />
    <rect x="17" y="17" width="15" height="5" fill="#000000" />
    <rect x="37" y="17" width="5" height="5" fill="#000000" />
    <rect x="47" y="17" width="15" height="5" fill="#000000" />
    <rect x="67" y="17" width="5" height="5" fill="#000000" />
    <rect x="82" y="17" width="20" height="5" fill="#000000" />
    <rect x="107" y="17" width="15" height="5" fill="#000000" />
    <rect x="127" y="17" width="5" height="5" fill="#000000" />
    <rect x="137" y="17" width="5" height="5" fill="#000000" />
    <rect x="152" y="17" width="10" height="5" fill="#000000" />
    <rect x="167" y="17" width="10" height="5" fill="#000000" />
    <rect x="182" y="17" width="5" height="5" fill="#000000" />
    <rect x="197" y="17" width="5" height="5" fill="#000000" />
    <rect x="207" y="17" width="15" height="5" fill="#000000" />
    <rect x="227" y="17" width="5" height="5" fill="#000000" />
    <rect x="7" y="22" width="5" height="5" fill="#000000" />
    <rect x="17" y="22" width="15" height="5" fill="#000000" />
    <rect x="37" y="22" width="5" height="5" fill="#000000" />
    <rect x="47" y="22" width="5" height="5" fill="#000000" />
    <rect x="57" y="22" width="15" height="5" fill="#000000" />
    <rect x="92" y="22" width="15" height="5" fill="#000000" />
    <rect x="112" y="22" width="5" height="5" fill="#000000" />
    <rect x="127" y="22" width="5" height="5" fill="#000000" />
    <rect x="142" y="22" width="5" height="5" fill="#000000" />
    <rect x="172" y="22" width="5" height="5" fill="#000000" />
    <rect x="182" y="22" width="10" height="5" fill="#000000" />
    <rect x="197" y="22" width="5" height="5" fill="#000000" />
    <rect x="207" y="22" width="15" height="5" fill="#000000" />
    <rect x="227" y="22" width="5" height="5" fill="#000000" />
    <rect x="7" y="27" width="5" height="5" fill="#000000" />
    <rect x="17" y="27" width="15" height="5" fill="#000000" />
    <rect x="37" y="27" width="5" height="5" fill="#000000" />
    <rect x="57" y="27" width="5" height="5" fill="#000000" />
    <rect x="77" y="27" width="5" height="5" fill="#000000" />
    <rect x="87" y="27" width="5" height="5" fill="#000000" />
    <rect x="97" y="27" width="55" height="5" fill="#000000" />
    <rect x="157" y="27" width="5" height="5" fill="#000000" />
    <rect x="177" y="27" width="15" height="5" fill="#000000" />
    <rect x="197" y="27" width="5" height="5" fill="#000000" />
    <rect x="207" y="27" width="15" height="5" fill="#000000" />
    <rect x="227" y="27" width="5" height="5" fill="#000000" />
    <rect x="7" y="32" width="5" height="5" fill="#000000" />
    <rect x="37" y="32" width="5" height="5" fill="#000000" />
    <rect x="47" y="32" width="5" height="5" fill="#000000" />
    <rect x="57" y="32" width="15" height="5" fill="#000000" />
    <rect x="87" y="32" width="5" height="5" fill="#000000" />
    <rect x="97" y="32" width="15" height="5" fill="#000000" />
    <rect x="127" y="32" width="5" height="5" fill="#000000" />
    <rect x="147" y="32" width="15" height="5" fill="#000000" />
    <rect x="167" y="32" width="10" height="5" fill="#000000" />
    <rect x="197" y="32" width="5" height="5" fill="#000000" />
    <rect x="227" y="32" width="5" height="5" fill="#000000" />
    <rect x="7" y="37" width="35" height="5" fill="#000000" />
    <rect x="47" y="37" width="5" height="5" fill="#000000" />
    <rect x="57" y="37" width="5" height="5" fill="#000000" />
    <rect x="67" y="37" width="5" height="5" fill="#000000" />
    <rect x="77" y="37" width="5" height="5" fill="#000000" />
    <rect x="87" y="37" width="5" height="5" fill="#000000" />
    <rect x="97" y="37" width="5" height="5" fill="#000000" />
    <rect x="107" y="37" width="5" height="5" fill="#000000" />
    <rect x="117" y="37" width="5" height="5" fill="#000000" />
    <rect x="127" y="37" width="5" height="5" fill="#000000" />
    <rect x="137" y="37" width="5" height="5" fill="#000000" />
    <rect x="147" y="37" width="5" height="5" fill="#000000" />
    <rect x="157" y="37" width="5" height="5" fill="#000000" />
    <rect x="167" y="37" width="5" height="5" fill="#000000" />
    <rect x="177" y="37" width="5" height="5" fill="#000000" />
    <rect x="187" y="37" width="5" height="5" fill="#000000" />
    <rect x="197" y="37" width="35" height="5" fill="#000000" />
    <rect x="52" y="42" width="20" height="5" fill="#000000" />
    <rect x="87" y="42" width="10" height="5" fill="#000000" />
    <rect x="102" y="42" width="10" height="5" fill="#000000" />
    <rect x="127" y="42" width="5" height="5" fill="#000000" />
    <rect x="142" y="42" width="5" height="5" fill="#000000" />
    <rect x="157" y="42" width="5" height="5" fill="#000000" />
    <rect x="167" y="42" width="20" height="5" fill="#000000" />
    <rect x="7" y="47" width="10" height="5" fill="#000000" />
    <rect x="27" y="47" width="15" height="5" fill="#000000" />
    <rect x="52" y="47" width="5" height="5" fill="#000000" />
    <rect x="77" y="47" width="5" height="5" fill="#000000" />
    <rect x="92" y="47" width="5" height="5" fill="#000000" />
    <rect x="102" y="47" width="35" height="5" fill="#000000" />
    <rect x="142" y="47" width="15" height="5" fill="#000000" />
    <rect x="162" y="47" width="5" height="5" fill="#000000" />
    <rect x="172" y="47" width="20" height="5" fill="#000000" />
    <rect x="202" y="47" width="5" height="5" fill="#000000" />
    <rect x="212" y="47" width="20" height="5" fill="#000000" />
    <rect x="17" y="52" width="20" height="5" fill="#000000" />
    <rect x="47" y="52" width="5" height="5" fill="#000000" />
    <rect x="57" y="52" width="10" height="5" fill="#000000" />
    <rect x="72" y="52" width="15" height="5" fill="#000000" />
    <rect x="92" y="52" width="20" height="5" fill="#000000" />
    <rect x="137" y="52" width="10" height="5" fill="#000000" />
    <rect x="152" y="52" width="10" height="5" fill="#000000" />
    <rect x="167" y="52" width="5" height="5" fill="#000000" />
    <rect x="177" y="52" width="20" height="5" fill="#000000" />
    <rect x="202" y="52" width="5" height="5" fill="#000000" />
    <rect x="212" y="52" width="5" height="5" fill="#000000" />
    <rect x="222" y="52" width="10" height="5" fill="#000000" />
    <rect x="22" y="57" width="5" height="5" fill="#000000" />
    <rect x="32" y="57" width="15" height="5" fill="#000000" />
    <rect x="52" y="57" width="15" height="5" fill="#000000" />
    <rect x="72" y="57" width="5" height="5" fill="#000000" />
    <rect x="82" y="57" width="15" height="5" fill="#000000" />
    <rect x="107" y="57" width="15" height="5" fill="#000000" />
    <rect x="137" y="57" width="15" height="5" fill="#000000" />
    <rect x="157" y="57" width="5" height="5" fill="#000000" />
    <rect x="192" y="57" width="15" height="5" fill="#000000" />
    <rect x="217" y="57" width="5" height="5" fill="#000000" />
    <rect x="7" y="62" width="5" height="5" fill="#000000" />
    <rect x="27" y="62" width="10" height="5" fill="#000000" />
    <rect x="47" y="62" width="10" height="5" fill="#000000" />
    <rect x="62" y="62" width="5" height="5" fill="#000000" />
    <rect x="77" y="62" width="10" height="5" fill="#000000" />
    <rect x="92" y="62" width="5" height="5" fill="#000000" />
    <rect x="107" y="62" width="5" height="5" fill="#000000" />
    <rect x="117" y="62" width="20" height="5" fill="#000000" />
    <rect x="152" y="62" width="5" height="5" fill="#000000" />
    <rect x="167" y="62" width="15" height="5" fill="#000000" />
    <rect x="192" y="62" width="10" height="5" fill="#000000" />
    <rect x="207" y="62" width="5" height="5" fill="#000000" />
    <rect x="217" y="62" width="5" height="5" fill="#000000" />
    <rect x="7" y="67" width="5" height="5" fill="#000000" />
    <rect x="17" y="67" width="5" height="5" fill="#000000" />
    <rect x="27" y="67" width="5" height="5" fill="#000000" />
    <rect x="37" y="67" width="5" height="5" fill="#000000" />
    <rect x="47" y="67" width="15" height="5" fill="#000000" />
    <rect x="67" y="67" width="10" height="5" fill="#000000" />
    <rect x="82" y="67" width="5" height="5" fill="#000000" />
    <rect x="97" y="67" width="15" height="5" fill="#000000" />
    <rect x="117" y="67" width="5" height="5" fill="#000000" />
    <rect x="132" y="67" width="5" height="5" fill="#000000" />
    <rect x="172" y="67" width="5" height="5" fill="#000000" />
    <rect x="192" y="67" width="10" height="5" fill="#000000" />
    <rect x="207" y="67" width="5" height="5" fill="#000000" />
    <rect x="217" y="67" width="5" height="5" fill="#000000" />
    <rect x="227" y="67" width="5" height="5" fill="#000000" />
    <rect x="42" y="72" width="5" height="5" fill="#000000" />
    <rect x="62" y="72" width="20" height="5" fill="#000000" />
    <rect x="97" y="72" width="5" height="5" fill="#000000" />
    <rect x="107" y="72" width="10" height="5" fill="#000000" />
    <rect x="122" y="72" width="5" height="5" fill="#000000" />
    <rect x="132" y="72" width="10" height="5" fill="#000000" />
    <rect x="162" y="72" width="10" height="5" fill="#000000" />
    <rect x="187" y="72" width="15" height="5" fill="#000000" />
    <rect x="12" y="77" width="10" height="5" fill="#000000" />
    <rect x="27" y="77" width="5" height="5" fill="#000000" />
    <rect x="37" y="77" width="20" height="5" fill="#000000" />
    <rect x="62" y="77" width="10" height="5" fill="#000000" />
    <rect x="87" y="77" width="35" height="5" fill="#000000" />
    <rect x="137" y="77" width="5" height="5" fill="#000000" />
    <rect x="147" y="77" width="10" height="5" fill="#000000" />
    <rect x="167" y="77" width="15" height="5" fill="#000000" />
    <rect x="192" y="77" width="5" height="5" fill="#000000" />
    <rect x="202" y="77" width="20" height="5" fill="#000000" />
    <rect x="12" y="82" width="5" height="5" fill="#000000" />
    <rect x="22" y="82" width="5" height="5" fill="#000000" />
    <rect x="42" y="82" width="5" height="5" fill="#000000" />
    <rect x="67" y="82" width="15" height="5" fill="#000000" />
    <rect x="92" y="82" width="10" height="5" fill="#000000" />
    <rect x="112" y="82" width="5" height="5" fill="#000000" />
    <rect x="132" y="82" width="5" height="5" fill="#000000" />
    <rect x="142" y="82" width="5" height="5" fill="#000000" />
    <rect x="157" y="82" width="5" height="5" fill="#000000" />
    <rect x="182" y="82" width="5" height="5" fill="#000000" />
    <rect x="192" y="82" width="10" height="5" fill="#000000" />
    <rect x="207" y="82" width="10" height="5" fill="#000000" />
    <rect x="222" y="82" width="10" height="5" fill="#000000" />
    <rect x="7" y="87" width="10" height="5" fill="#000000" />
    <rect x="37" y="87" width="5" height="5" fill="#000000" />
    <rect x="47" y="87" width="5" height="5" fill="#000000" />
    <rect x="62" y="87" width="5" height="5" fill="#000000" />
    <rect x="72" y="87" width="5" height="5" fill="#000000" />
    <rect x="82" y="87" width="10" height="5" fill="#000000" />
    <rect x="97" y="87" width="15" height="5" fill="#000000" />
    <rect x="127" y="87" width="10" height="5" fill="#000000" />
    <rect x="142" y="87" width="20" height="5" fill="#000000" />
    <rect x="167" y="87" width="5" height="5" fill="#000000" />
    <rect x="212" y="87" width="5" height="5" fill="#000000" />
    <rect x="222" y="87" width="10" height="5" fill="#000000" />
    <rect x="7" y="92" width="5" height="5" fill="#000000" />
    <rect x="32" y="92" width="5" height="5" fill="#000000" />
    <rect x="52" y="92" width="10" height="5" fill="#000000" />
    <rect x="67" y="92" width="15" height="5" fill="#000000" />
    <rect x="92" y="92" width="5" height="5" fill="#000000" />
    <rect x="102" y="92" width="5" height="5" fill="#000000" />
    <rect x="122" y="92" width="5" height="5" fill="#000000" />
    <rect x="142" y="92" width="10" height="5" fill="#000000" />
    <rect x="162" y="92" width="20" height="5" fill="#000000" />
    <rect x="187" y="92" width="5" height="5" fill="#000000" />
    <rect x="197" y="92" width="5" height="5" fill="#000000" />
    <rect x="207" y="92" width="5" height="5" fill="#000000" />
    <rect x="222" y="92" width="5" height="5" fill="#000000" />
    <rect x="12" y="97" width="30" height="5" fill="#000000" />
    <rect x="52" y="97" width="10" height="5" fill="#000000" />
    <rect x="67" y="97" width="5" height="5" fill="#000000" />
    <rect x="102" y="97" width="20" height="5" fill="#000000" />
    <rect x="137" y="97" width="10" height="5" fill="#000000" />
    <rect x="172" y="97" width="20" height="5" fill="#000000" />
    <rect x="197" y="97" width="5" height="5" fill="#000000" />
    <rect x="207" y="97" width="10" height="5" fill="#000000" />
    <rect x="12" y="102" width="5" height="5" fill="#000000" />
    <rect x="27" y="102" width="5" height="5" fill="#000000" />
    <rect x="42" y="102" width="10" height="5" fill="#000000" />
    <rect x="82" y="102" width="5" height="5" fill="#000000" />
    <rect x="92" y="102" width="5" height="5" fill="#000000" />
    <rect x="102" y="102" width="5" height="5" fill="#000000" />
    <rect x="127" y="102" width="5" height="5" fill="#000000" />
    <rect x="152" y="102" width="15" height="5" fill="#000000" />
    <rect x="177" y="102" width="10" height="5" fill="#000000" />
    <rect x="202" y="102" width="5" height="5" fill="#000000" />
    <rect x="217" y="102" width="15" height="5" fill="#000000" />
    <rect x="12" y="107" width="10" height="5" fill="#000000" />
    <rect x="27" y="107" width="40" height="5" fill="#000000" />
    <rect x="72" y="107" width="10" height="5" fill="#000000" />
    <rect x="92" y="107" width="10" height="5" fill="#000000" />
    <rect x="107" y="107" width="45" height="5" fill="#000000" />
    <rect x="162" y="107" width="5" height="5" fill="#000000" />
    <rect x="172" y="107" width="40" height="5" fill="#000000" />
    <rect x="217" y="107" width="15" height="5" fill="#000000" />
    <rect x="12" y="112" width="20" height="5" fill="#000000" />
    <rect x="47" y="112" width="5" height="5" fill="#000000" />
    <rect x="72" y="112" width="5" height="5" fill="#000000" />
    <rect x="87" y="112" width="5" height="5" fill="#000000" />
    <rect x="107" y="112" width="5" height="5" fill="#000000" />
    <rect x="127" y="112" width="10" height="5" fill="#000000" />
    <rect x="142" y="112" width="5" height="5" fill="#000000" />
    <rect x="162" y="112" width="5" height="5" fill="#000000" />
    <rect x="177" y="112" width="5" height="5" fill="#000000" />
    <rect x="187" y="112" width="5" height="5" fill="#000000" />
    <rect x="207" y="112" width="20" height="5" fill="#000000" />
    <rect x="7" y="117" width="5" height="5" fill="#000000" />
    <rect x="27" y="117" width="5" height="5" fill="#000000" />
    <rect x="37" y="117" width="5" height="5" fill="#000000" />
    <rect x="47" y="117" width="5" height="5" fill="#000000" />
    <rect x="62" y="117" width="5" height="5" fill="#000000" />
    <rect x="77" y="117" width="10" height="5" fill="#000000" />
    <rect x="97" y="117" width="15" height="5" fill="#000000" />
    <rect x="117" y="117" width="5" height="5" fill="#000000" />
    <rect x="127" y="117" width="5" height="5" fill="#000000" />
    <rect x="177" y="117" width="5" height="5" fill="#000000" />
    <rect x="187" y="117" width="5" height="5" fill="#000000" />
    <rect x="197" y="117" width="5" height="5" fill="#000000" />
    <rect x="207" y="117" width="10" height="5" fill="#000000" />
    <rect x="17" y="122" width="5" height="5" fill="#000000" />
    <rect x="27" y="122" width="5" height="5" fill="#000000" />
    <rect x="47" y="122" width="5" height="5" fill="#000000" />
    <rect x="57" y="122" width="5" height="5" fill="#000000" />
    <rect x="72" y="122" width="10" height="5" fill="#000000" />
    <rect x="87" y="122" width="15" height="5" fill="#000000" />
    <rect x="107" y="122" width="5" height="5" fill="#000000" />
    <rect x="127" y="122" width="5" height="5" fill="#000000" />
    <rect x="142" y="122" width="5" height="5" fill="#000000" />
    <rect x="167" y="122" width="10" height="5" fill="#000000" />
    <rect x="187" y="122" width="5" height="5" fill="#000000" />
    <rect x="207" y="122" width="5" height="5" fill="#000000" />
    <rect x="217" y="122" width="5" height="5" fill="#000000" />
    <rect x="227" y="122" width="5" height="5" fill="#000000" />
    <rect x="7" y="127" width="5" height="5" fill="#000000" />
    <rect x="17" y="127" width="5" height="5" fill="#000000" />
    <rect x="27" y="127" width="25" height="5" fill="#000000" />
    <rect x="57" y="127" width="15" height="5" fill="#000000" />
    <rect x="92" y="127" width="10" height="5" fill="#000000" />
    <rect x="107" y="127" width="30" height="5" fill="#000000" />
    <rect x="162" y="127" width="5" height="5" fill="#000000" />
    <rect x="172" y="127" width="5" height="5" fill="#000000" />
    <rect x="187" y="127" width="35" height="5" fill="#000000" />
    <rect x="227" y="127" width="5" height="5" fill="#000000" />
    <rect x="7" y="132" width="5" height="5" fill="#000000" />
    <rect x="32" y="132" width="5" height="5" fill="#000000" />
    <rect x="52" y="132" width="5" height="5" fill="#000000" />
    <rect x="67" y="132" width="10" height="5" fill="#000000" />
    <rect x="102" y="132" width="5" height="5" fill="#000000" />
    <rect x="127" y="132" width="25" height="5" fill="#000000" />
    <rect x="157" y="132" width="45" height="5" fill="#000000" />
    <rect x="217" y="132" width="15" height="5" fill="#000000" />
    <rect x="7" y="137" width="15" height="5" fill="#000000" />
    <rect x="27" y="137" width="5" height="5" fill="#000000" />
    <rect x="37" y="137" width="5" height="5" fill="#000000" />
    <rect x="47" y="137" width="10" height="5" fill="#000000" />
    <rect x="72" y="137" width="25" height="5" fill="#000000" />
    <rect x="102" y="137" width="20" height="5" fill="#000000" />
    <rect x="127" y="137" width="5" height="5" fill="#000000" />
    <rect x="142" y="137" width="10" height="5" fill="#000000" />
    <rect x="157" y="137" width="5" height="5" fill="#000000" />
    <rect x="177" y="137" width="5" height="5" fill="#000000" />
    <rect x="192" y="137" width="20" height="5" fill="#000000" />
    <rect x="7" y="142" width="5" height="5" fill="#000000" />
    <rect x="17" y="142" width="10" height="5" fill="#000000" />
    <rect x="32" y="142" width="5" height="5" fill="#000000" />
    <rect x="47" y="142" width="5" height="5" fill="#000000" />
    <rect x="62" y="142" width="5" height="5" fill="#000000" />
    <rect x="72" y="142" width="5" height="5" fill="#000000" />
    <rect x="87" y="142" width="5" height="5" fill="#000000" />
    <rect x="97" y="142" width="10" height="5" fill="#000000" />
    <rect x="112" y="142" width="10" height="5" fill="#000000" />
    <rect x="127" y="142" width="25" height="5" fill="#000000" />
    <rect x="157" y="142" width="5" height="5" fill="#000000" />
    <rect x="172" y="142" width="5" height="5" fill="#000000" />
    <rect x="182" y="142" width="10" height="5" fill="#000000" />
    <rect x="197" y="142" width="5" height="5" fill="#000000" />
    <rect x="212" y="142" width="10" height="5" fill="#000000" />
    <rect x="7" y="147" width="10" height="5" fill="#000000" />
    <rect x="22" y="147" width="20" height="5" fill="#000000" />
    <rect x="52" y="147" width="25" height="5" fill="#000000" />
    <rect x="87" y="147" width="5" height="5" fill="#000000" />
    <rect x="97" y="147" width="10" height="5" fill="#000000" />
    <rect x="127" y="147" width="25" height="5" fill="#000000" />
    <rect x="162" y="147" width="5" height="5" fill="#000000" />
    <rect x="172" y="147" width="5" height="5" fill="#000000" />
    <rect x="212" y="147" width="20" height="5" fill="#000000" />
    <rect x="32" y="152" width="5" height="5" fill="#000000" />
    <rect x="42" y="152" width="20" height="5" fill="#000000" />
    <rect x="67" y="152" width="15" height="5" fill="#000000" />
    <rect x="102" y="152" width="5" height="5" fill="#000000" />
    <rect x="117" y="152" width="5" height="5" fill="#000000" />
    <rect x="127" y="152" width="5" height="5" fill="#000000" />
    <rect x="142" y="152" width="5" height="5" fill="#000000" />
    <rect x="157" y="152" width="5" height="5" fill="#000000" />
    <rect x="177" y="152" width="5" height="5" fill="#000000" />
    <rect x="192" y="152" width="5" height="5" fill="#000000" />
    <rect x="217" y="152" width="5" height="5" fill="#000000" />
    <rect x="7" y="157" width="5" height="5" fill="#000000" />
    <rect x="17" y="157" width="5" height="5" fill="#000000" />
    <rect x="32" y="157" width="15" height="5" fill="#000000" />
    <rect x="52" y="157" width="10" height="5" fill="#000000" />
    <rect x="72" y="157" width="5" height="5" fill="#000000" />
    <rect x="97" y="157" width="5" height="5" fill="#000000" />
    <rect x="112" y="157" width="5" height="5" fill="#000000" />
    <rect x="127" y="157" width="5" height="5" fill="#000000" />
    <rect x="142" y="157" width="10" height="5" fill="#000000" />
    <rect x="157" y="157" width="10" height="5" fill="#000000" />
    <rect x="182" y="157" width="10" height="5" fill="#000000" />
    <rect x="197" y="157" width="5" height="5" fill="#000000" />
    <rect x="207" y="157" width="10" height="5" fill="#000000" />
    <rect x="222" y="157" width="5" height="5" fill="#000000" />
    <rect x="12" y="162" width="5" height="5" fill="#000000" />
    <rect x="32" y="162" width="5" height="5" fill="#000000" />
    <rect x="57" y="162" width="10" height="5" fill="#000000" />
    <rect x="72" y="162" width="5" height="5" fill="#000000" />
    <rect x="97" y="162" width="10" height="5" fill="#000000" />
    <rect x="112" y="162" width="10" height="5" fill="#000000" />
    <rect x="127" y="162" width="5" height="5" fill="#000000" />
    <rect x="137" y="162" width="5" height="5" fill="#000000" />
    <rect x="147" y="162" width="10" height="5" fill="#000000" />
    <rect x="162" y="162" width="10" height="5" fill="#000000" />
    <rect x="187" y="162" width="5" height="5" fill="#000000" />
    <rect x="202" y="162" width="20" height="5" fill="#000000" />
    <rect x="27" y="167" width="15" height="5" fill="#000000" />
    <rect x="47" y="167" width="5" height="5" fill="#000000" />
    <rect x="57" y="167" width="5" height="5" fill="#000000" />
    <rect x="67" y="167" width="5" height="5" fill="#000000" />
    <rect x="77" y="167" width="5" height="5" fill="#000000" />
    <rect x="87" y="167" width="10" height="5" fill="#000000" />
    <rect x="102" y="167" width="5" height="5" fill="#000000" />
    <rect x="132" y="167" width="10" height="5" fill="#000000" />
    <rect x="172" y="167" width="10" height="5" fill="#000000" />
    <rect x="197" y="167" width="10" height="5" fill="#000000" />
    <rect x="212" y="167" width="5" height="5" fill="#000000" />
    <rect x="227" y="167" width="5" height="5" fill="#000000" />
    <rect x="7" y="172" width="10" height="5" fill="#000000" />
    <rect x="22" y="172" width="15" height="5" fill="#000000" />
    <rect x="47" y="172" width="5" height="5" fill="#000000" />
    <rect x="57" y="172" width="10" height="5" fill="#000000" />
    <rect x="72" y="172" width="15" height="5" fill="#000000" />
    <rect x="92" y="172" width="45" height="5" fill="#000000" />
    <rect x="152" y="172" width="5" height="5" fill="#000000" />
    <rect x="162" y="172" width="15" height="5" fill="#000000" />
    <rect x="187" y="172" width="5" height="5" fill="#000000" />
    <rect x="197" y="172" width="5" height="5" fill="#000000" />
    <rect x="217" y="172" width="15" height="5" fill="#000000" />
    <rect x="27" y="177" width="5" height="5" fill="#000000" />
    <rect x="37" y="177" width="5" height="5" fill="#000000" />
    <rect x="47" y="177" width="5" height="5" fill="#000000" />
    <rect x="62" y="177" width="30" height="5" fill="#000000" />
    <rect x="102" y="177" width="5" height="5" fill="#000000" />
    <rect x="122" y="177" width="10" height="5" fill="#000000" />
    <rect x="157" y="177" width="5" height="5" fill="#000000" />
    <rect x="172" y="177" width="5" height="5" fill="#000000" />
    <rect x="187" y="177" width="15" height="5" fill="#000000" />
    <rect x="207" y="177" width="10" height="5" fill="#000000" />
    <rect x="12" y="182" width="20" height="5" fill="#000000" />
    <rect x="47" y="182" width="10" height="5" fill="#000000" />
    <rect x="67" y="182" width="15" height="5" fill="#000000" />
    <rect x="97" y="182" width="20" height="5" fill="#000000" />
    <rect x="132" y="182" width="5" height="5" fill="#000000" />
    <rect x="147" y="182" width="10" height="5" fill="#000000" />
    <rect x="167" y="182" width="10" height="5" fill="#000000" />
    <rect x="182" y="182" width="5" height="5" fill="#000000" />
    <rect x="192" y="182" width="10" height="5" fill="#000000" />
    <rect x="212" y="182" width="5" height="5" fill="#000000" />
    <rect x="222" y="182" width="5" height="5" fill="#000000" />
    <rect x="7" y="187" width="5" height="5" fill="#000000" />
    <rect x="22" y="187" width="10" height="5" fill="#000000" />
    <rect x="37" y="187" width="10" height="5" fill="#000000" />
    <rect x="57" y="187" width="30" height="5" fill="#000000" />
    <rect x="97" y="187" width="35" height="5" fill="#000000" />
    <rect x="137" y="187" width="5" height="5" fill="#000000" />
    <rect x="152" y="187" width="10" height="5" fill="#000000" />
    <rect x="187" y="187" width="25" height="5" fill="#000000" />
    <rect x="217" y="187" width="5" height="5" fill="#000000" />
    <rect x="227" y="187" width="5" height="5" fill="#000000" />
    <rect x="47" y="192" width="10" height="5" fill="#000000" />
    <rect x="67" y="192" width="5" height="5" fill="#000000" />
    <rect x="82" y="192" width="15" height="5" fill="#000000" />
    <rect x="107" y="192" width="5" height="5" fill="#000000" />
    <rect x="127" y="192" width="20" height="5" fill="#000000" />
    <rect x="157" y="192" width="5" height="5" fill="#000000" />
    <rect x="167" y="192" width="15" height="5" fill="#000000" />
    <rect x="187" y="192" width="5" height="5" fill="#000000" />
    <rect x="207" y="192" width="5" height="5" fill="#000000" />
    <rect x="227" y="192" width="5" height="5" fill="#000000" />
    <rect x="7" y="197" width="35" height="5" fill="#000000" />
    <rect x="62" y="197" width="5" height="5" fill="#000000" />
    <rect x="72" y="197" width="10" height="5" fill="#000000" />
    <rect x="87" y="197" width="5" height="5" fill="#000000" />
    <rect x="102" y="197" width="10" height="5" fill="#000000" />
    <rect x="117" y="197" width="5" height="5" fill="#000000" />
    <rect x="127" y="197" width="10" height="5" fill="#000000" />
    <rect x="142" y="197" width="15" height="5" fill="#000000" />
    <rect x="162" y="197" width="5" height="5" fill="#000000" />
    <rect x="172" y="197" width="5" height="5" fill="#000000" />
    <rect x="182" y="197" width="10" height="5" fill="#000000" />
    <rect x="197" y="197" width="5" height="5" fill="#000000" />
    <rect x="207" y="197" width="5" height="5" fill="#000000" />
    <rect x="227" y="197" width="5" height="5" fill="#000000" />
    <rect x="7" y="202" width="5" height="5" fill="#000000" />
    <rect x="37" y="202" width="5" height="5" fill="#000000" />
    <rect x="47" y="202" width="15" height="5" fill="#000000" />
    <rect x="82" y="202" width="5" height="5" fill="#000000" />
    <rect x="92" y="202" width="10" height="5" fill="#000000" />
    <rect x="107" y="202" width="5" height="5" fill="#000000" />
    <rect x="127" y="202" width="25" height="5" fill="#000000" />
    <rect x="167" y="202" width="5" height="5" fill="#000000" />
    <rect x="177" y="202" width="5" height="5" fill="#000000" />
    <rect x="187" y="202" width="5" height="5" fill="#000000" />
    <rect x="207" y="202" width="5" height="5" fill="#000000" />
    <rect x="222" y="202" width="5" height="5" fill="#000000" />
    <rect x="7" y="207" width="5" height="5" fill="#000000" />
    <rect x="17" y="207" width="15" height="5" fill="#000000" />
    <rect x="37" y="207" width="5" height="5" fill="#000000" />
    <rect x="47" y="207" width="10" height="5" fill="#000000" />
    <rect x="67" y="207" width="15" height="5" fill="#000000" />
    <rect x="102" y="207" width="40" height="5" fill="#000000" />
    <rect x="157" y="207" width="5" height="5" fill="#000000" />
    <rect x="167" y="207" width="5" height="5" fill="#000000" />
    <rect x="187" y="207" width="25" height="5" fill="#000000" />
    <rect x="222" y="207" width="5" height="5" fill="#000000" />
    <rect x="7" y="212" width="5" height="5" fill="#000000" />
    <rect x="17" y="212" width="15" height="5" fill="#000000" />
    <rect x="37" y="212" width="5" height="5" fill="#000000" />
    <rect x="52" y="212" width="5" height="5" fill="#000000" />
    <rect x="67" y="212" width="10" height="5" fill="#000000" />
    <rect x="87" y="212" width="5" height="5" fill="#000000" />
    <rect x="102" y="212" width="10" height="5" fill="#000000" />
    <rect x="122" y="212" width="10" height="5" fill="#000000" />
    <rect x="172" y="212" width="10" height="5" fill="#000000" />
    <rect x="212" y="212" width="5" height="5" fill="#000000" />
    <rect x="222" y="212" width="10" height="5" fill="#000000" />
    <rect x="7" y="217" width="5" height="5" fill="#000000" />
    <rect x="17" y="217" width="15" height="5" fill="#000000" />
    <rect x="37" y="217" width="5" height="5" fill="#000000" />
    <rect x="52" y="217" width="15" height="5" fill="#000000" />
    <rect x="82" y="217" width="10" height="5" fill="#000000" />
    <rect x="107" y="217" width="25" height="5" fill="#000000" />
    <rect x="142" y="217" width="10" height="5" fill="#000000" />
    <rect x="157" y="217" width="5" height="5" fill="#000000" />
    <rect x="167" y="217" width="15" height="5" fill="#000000" />
    <rect x="212" y="217" width="10" height="5" fill="#000000" />
    <rect x="7" y="222" width="5" height="5" fill="#000000" />
    <rect x="37" y="222" width="5" height="5" fill="#000000" />
    <rect x="47" y="222" width="10" height="5" fill="#000000" />
    <rect x="62" y="222" width="5" height="5" fill="#000000" />
    <rect x="72" y="222" width="15" height="5" fill="#000000" />
    <rect x="92" y="222" width="5" height="5" fill="#000000" />
    <rect x="102" y="222" width="5" height="5" fill="#000000" />
    <rect x="122" y="222" width="15" height="5" fill="#000000" />
    <rect x="142" y="222" width="10" height="5" fill="#000000" />
    <rect x="157" y="222" width="5" height="5" fill="#000000" />
    <rect x="172" y="222" width="5" height="5" fill="#000000" />
    <rect x="182" y="222" width="5" height="5" fill="#000000" />
    <rect x="192" y="222" width="5" height="5" fill="#000000" />
    <rect x="202" y="222" width="25" height="5" fill="#000000" />
    <rect x="7" y="227" width="35" height="5" fill="#000000" />
    <rect x="47" y="227" width="15" height="5" fill="#000000" />
    <rect x="67" y="227" width="5" height="5" fill="#000000" />
    <rect x="77" y="227" width="5" height="5" fill="#000000" />
    <rect x="87" y="227" width="15" height="5" fill="#000000" />
    <rect x="107" y="227" width="15" height="5" fill="#000000" />
    <rect x="127" y="227" width="15" height="5" fill="#000000" />
    <rect x="162" y="227" width="10" height="5" fill="#000000" />
    <rect x="177" y="227" width="10" height="5" fill="#000000" />
    <rect x="197" y="227" width="5" height="5" fill="#000000" />
    <rect x="222" y="227" width="10" height="5" fill="#000000" />
  </g>
</svg>